<?xml version="1.0" encoding="UTF-8"?>
<svg version="1.1" xmlns="http://www.w3.org/2000/svg" width="512" height="512">
<path d="M0 0 C1.01790619 0.00215515 2.03581238 0.0043103 3.08456421 0.00653076 C17.69363523 0.05620146 32.02575853 0.30709809 46.375 3.3125 C47.34985352 3.51117676 48.32470703 3.70985352 49.32910156 3.91455078 C97.7109774 14.03517194 141.69928269 35.9516877 177.375 70.3125 C178.3640332 71.26068604 178.3640332 71.26068604 179.37304688 72.22802734 C188.86130305 81.37247479 197.6012044 90.66984009 205.375 101.3125 C206.23306152 102.46355017 207.09113451 103.61459177 207.94921875 104.765625 C213.98736829 112.95680614 219.34595521 121.47054105 224.375 130.3125 C224.73948242 130.94430176 225.10396484 131.57610352 225.47949219 132.22705078 C247.08534998 169.97532572 256.85198095 212.74189997 256.6875 255.9375 C256.68534485 256.95540619 256.6831897 257.97331238 256.68096924 259.02206421 C256.63129854 273.63113523 256.38040191 287.96325853 253.375 302.3125 C253.07698486 303.77478027 253.07698486 303.77478027 252.77294922 305.26660156 C242.65232806 353.6484774 220.7358123 397.63678269 186.375 433.3125 C185.74287598 433.97185547 185.11075195 434.63121094 184.45947266 435.31054688 C175.31502521 444.79880305 166.01765991 453.5387044 155.375 461.3125 C154.22394983 462.17056152 153.07290823 463.02863451 151.921875 463.88671875 C143.73224019 469.92427396 135.22961724 475.30707302 126.375 480.3125 C125.66778809 480.7146875 124.96057617 481.116875 124.23193359 481.53125 C101.09654164 494.5566741 75.92537591 503.30551461 49.9375 508.625 C49.21860596 508.77235596 48.49971191 508.91971191 47.7590332 509.0715332 C33.08339502 511.86090125 18.55831162 512.66142619 3.64770508 512.62817383 C0.70811513 512.6250221 -2.2304558 512.64854926 -5.16992188 512.67382812 C-18.54306192 512.71848737 -31.43916711 511.51301542 -44.625 509.3125 C-46.33055054 509.03031616 -46.33055054 509.03031616 -48.07055664 508.74243164 C-91.33802759 500.97044532 -132.38793216 480.98345309 -165.625 452.3125 C-166.37007813 451.67828125 -167.11515625 451.0440625 -167.8828125 450.390625 C-181.38779833 438.57948485 -194.05918743 425.82889772 -204.625 411.3125 C-205.48149066 410.16255169 -206.33826433 409.01281411 -207.1953125 407.86328125 C-213.23534209 399.67315742 -218.61867614 391.16870382 -223.625 382.3125 C-224.0271875 381.60528809 -224.429375 380.89807617 -224.84375 380.16943359 C-237.8691741 357.03404164 -246.61801461 331.86287591 -251.9375 305.875 C-252.08485596 305.15610596 -252.23221191 304.43721191 -252.3840332 303.6965332 C-255.35789088 288.05024391 -255.99800362 272.57681954 -255.9375 256.6875 C-255.93534485 255.66959381 -255.9331897 254.65168762 -255.93096924 253.60293579 C-255.88129854 238.99386477 -255.63040191 224.66174147 -252.625 210.3125 C-252.42632324 209.33764648 -252.22764648 208.36279297 -252.02294922 207.35839844 C-241.90232806 158.9765226 -219.9858123 114.98821731 -185.625 79.3125 C-184.99287598 78.65314453 -184.36075195 77.99378906 -183.70947266 77.31445312 C-174.56502521 67.82619695 -165.26765991 59.0862956 -154.625 51.3125 C-153.47394983 50.45443848 -152.32290823 49.59636549 -151.171875 48.73828125 C-142.98224019 42.70072604 -134.47961724 37.31792698 -125.625 32.3125 C-124.91778809 31.9103125 -124.21057617 31.508125 -123.48193359 31.09375 C-100.34654164 18.0683259 -75.17537591 9.31948539 -49.1875 4 C-48.46860596 3.85264404 -47.74971191 3.70528809 -47.0090332 3.5534668 C-31.36274391 0.57960912 -15.88931954 -0.06050362 0 0 Z " fill="#42D38F" transform="translate(255.625,-0.3125)"/>
<path d="M0 0 C1.01790619 0.00215515 2.03581238 0.0043103 3.08456421 0.00653076 C17.69363523 0.05620146 32.02575853 0.30709809 46.375 3.3125 C47.34985352 3.51117676 48.32470703 3.70985352 49.32910156 3.91455078 C97.7109774 14.03517194 141.69928269 35.9516877 177.375 70.3125 C178.3640332 71.26068604 178.3640332 71.26068604 179.37304688 72.22802734 C188.86130305 81.37247479 197.6012044 90.66984009 205.375 101.3125 C206.23306152 102.46355017 207.09113451 103.61459177 207.94921875 104.765625 C213.98736829 112.95680614 219.34595521 121.47054105 224.375 130.3125 C224.73948242 130.94430176 225.10396484 131.57610352 225.47949219 132.22705078 C247.08534998 169.97532572 256.85198095 212.74189997 256.6875 255.9375 C256.68534485 256.95540619 256.6831897 257.97331238 256.68096924 259.02206421 C256.63129854 273.63113523 256.38040191 287.96325853 253.375 302.3125 C253.07698486 303.77478027 253.07698486 303.77478027 252.77294922 305.26660156 C242.65232806 353.6484774 220.7358123 397.63678269 186.375 433.3125 C185.74287598 433.97185547 185.11075195 434.63121094 184.45947266 435.31054688 C175.31502521 444.79880305 166.01765991 453.5387044 155.375 461.3125 C154.22394983 462.17056152 153.07290823 463.02863451 151.921875 463.88671875 C143.73224019 469.92427396 135.22961724 475.30707302 126.375 480.3125 C125.66778809 480.7146875 124.96057617 481.116875 124.23193359 481.53125 C101.09654164 494.5566741 75.92537591 503.30551461 49.9375 508.625 C49.21860596 508.77235596 48.49971191 508.91971191 47.7590332 509.0715332 C33.08339502 511.86090125 18.55831162 512.66142619 3.64770508 512.62817383 C0.70811513 512.6250221 -2.2304558 512.64854926 -5.16992188 512.67382812 C-18.54306192 512.71848737 -31.43916711 511.51301542 -44.625 509.3125 C-46.33055054 509.03031616 -46.33055054 509.03031616 -48.07055664 508.74243164 C-91.33802759 500.97044532 -132.38793216 480.98345309 -165.625 452.3125 C-166.37007813 451.67828125 -167.11515625 451.0440625 -167.8828125 450.390625 C-181.38779833 438.57948485 -194.05918743 425.82889772 -204.625 411.3125 C-205.48149066 410.16255169 -206.33826433 409.01281411 -207.1953125 407.86328125 C-213.23534209 399.67315742 -218.61867614 391.16870382 -223.625 382.3125 C-224.0271875 381.60528809 -224.429375 380.89807617 -224.84375 380.16943359 C-237.8691741 357.03404164 -246.61801461 331.86287591 -251.9375 305.875 C-252.08485596 305.15610596 -252.23221191 304.43721191 -252.3840332 303.6965332 C-255.35789088 288.05024391 -255.99800362 272.57681954 -255.9375 256.6875 C-255.93534485 255.66959381 -255.9331897 254.65168762 -255.93096924 253.60293579 C-255.88129854 238.99386477 -255.63040191 224.66174147 -252.625 210.3125 C-252.42632324 209.33764648 -252.22764648 208.36279297 -252.02294922 207.35839844 C-241.90232806 158.9765226 -219.9858123 114.98821731 -185.625 79.3125 C-184.99287598 78.65314453 -184.36075195 77.99378906 -183.70947266 77.31445312 C-174.56502521 67.82619695 -165.26765991 59.0862956 -154.625 51.3125 C-153.47394983 50.45443848 -152.32290823 49.59636549 -151.171875 48.73828125 C-142.98224019 42.70072604 -134.47961724 37.31792698 -125.625 32.3125 C-124.91778809 31.9103125 -124.21057617 31.508125 -123.48193359 31.09375 C-100.34654164 18.0683259 -75.17537591 9.31948539 -49.1875 4 C-48.46860596 3.85264404 -47.74971191 3.70528809 -47.0090332 3.5534668 C-31.36274391 0.57960912 -15.88931954 -0.06050362 0 0 Z M-39.625 22.3125 C-40.46369629 22.4357666 -41.30239258 22.5590332 -42.16650391 22.68603516 C-99.22224524 31.64936613 -154.60984541 66.98128475 -188.625 113.3125 C-189.47260437 114.4414452 -190.32026066 115.57035143 -191.16796875 116.69921875 C-226.44129924 164.26404783 -243.23501872 225.97760547 -234.99755859 284.80957031 C-234.27670305 289.65243466 -233.50441592 294.4849159 -232.6875 299.3125 C-232.52991211 300.24400879 -232.37232422 301.17551758 -232.20996094 302.13525391 C-231.05187778 308.64628054 -229.47987919 314.96647408 -227.625 321.3125 C-227.36759033 322.19679688 -227.11018066 323.08109375 -226.8449707 323.9921875 C-217.97501861 353.65721965 -203.74630056 380.10067017 -184.625 404.3125 C-184.18075684 404.87533691 -183.73651367 405.43817383 -183.27880859 406.01806641 C-172.57598789 419.42577448 -160.31697228 431.9632575 -146.625 442.3125 C-146.05958496 442.74369141 -145.49416992 443.17488281 -144.91162109 443.61914062 C-97.41902192 479.71503051 -36.42524926 499.82411624 23.5 492.5 C26.42227169 492.08219543 26.42227169 492.08219543 29.33984375 491.63330078 C31.58776846 491.2789614 33.8396715 490.96505618 36.09375 490.65234375 C46.06904986 489.22829675 55.72597478 487.26242465 65.375 484.3125 C66.22626465 484.05903809 67.0775293 483.80557617 67.95458984 483.54443359 C129.07472857 465.14141391 179.27741363 423.30035229 209.75 367.42260742 C219.45451217 349.27062068 226.41098738 330.26469345 231.375 310.3125 C231.67019531 309.17941406 231.96539062 308.04632813 232.26953125 306.87890625 C236.38706003 290.30737415 236.78120312 273.85769253 236.75 256.875 C236.74945618 255.76411011 236.74891235 254.65322021 236.74835205 253.50866699 C236.71210571 237.42862818 236.25469449 221.99367006 232.375 206.3125 C232.16069336 205.39871582 231.94638672 204.48493164 231.72558594 203.54345703 C218.94589871 149.81110396 188.05704979 100.27172523 143.375 67.3125 C141.95960938 66.23935547 141.95960938 66.23935547 140.515625 65.14453125 C119.82449 49.68598097 96.70906399 38.68801149 72.375 30.3125 C71.17875 29.88324219 69.9825 29.45398437 68.75 29.01171875 C59.37298486 25.84941807 49.57802858 24.37526083 39.84472656 22.73095703 C37.78781495 22.38244512 35.73340071 22.01923332 33.6796875 21.65234375 C9.41138338 17.37529276 -15.35866888 18.73352401 -39.625 22.3125 Z " fill="#171C1F" transform="translate(255.625,-0.3125)"/>
<path d="M0 0 C0.86462357 -0.00960754 1.72924713 -0.01921509 2.62007141 -0.02911377 C3.55650986 -0.03336365 4.4929483 -0.03761353 5.45776367 -0.04199219 C6.41970139 -0.04769226 7.3816391 -0.05339233 8.37272644 -0.05926514 C10.4112335 -0.06872231 12.44975589 -0.07525196 14.48828125 -0.07910156 C17.60273047 -0.08879559 20.71651663 -0.11980756 23.83081055 -0.15136719 C25.81062433 -0.15789835 27.79044284 -0.16314838 29.77026367 -0.16699219 C31.1658123 -0.18551239 31.1658123 -0.18551239 32.58955383 -0.20440674 C37.46480152 -0.18766788 40.90580045 -0.10007553 44.81323242 3.16113281 C47.34846576 6.96398282 47.0801903 9.99304508 47.0402832 14.39624023 C47.04057526 15.23548538 47.04086731 16.07473053 47.04116821 16.93940735 C47.03977413 19.71524368 47.02420925 22.49081208 47.00854492 25.26660156 C47.00481507 27.19045363 47.00196797 29.11430759 46.99996948 31.03816223 C46.99233084 36.1033146 46.97268033 41.16835239 46.95056152 46.23345947 C46.9301081 51.40139211 46.92096884 56.56934325 46.91088867 61.73730469 C46.88943469 71.87863109 46.85529592 82.01987243 46.81323242 92.16113281 C47.85448776 92.15669159 48.8957431 92.15225037 49.96855164 92.14767456 C59.78264901 92.10712657 69.59672939 92.07714747 79.41089153 92.05750847 C84.45641764 92.04707245 89.5018761 92.03291649 94.54736328 92.01025391 C99.41676816 91.98851916 104.28610799 91.97656281 109.15555763 91.97137833 C111.01309038 91.96768372 112.87061957 91.9604691 114.72812462 91.9496727 C117.33038394 91.93514945 119.93237462 91.93315523 122.53466797 91.93408203 C123.30215363 91.92689148 124.06963928 91.91970093 124.86038208 91.91229248 C128.94659173 91.92803429 132.17741504 92.23229769 135.81323242 94.16113281 C139.73328714 98.5555345 139.24840789 103.5271338 139.21166992 109.09863281 C139.21597519 110.53517212 139.21597519 110.53517212 139.22036743 112.00073242 C139.22240482 114.02132765 139.21689775 116.04194274 139.2043457 118.0625 C139.18828764 121.1505149 139.20420565 124.23722099 139.22338867 127.32519531 C139.22140618 129.29134403 139.21756239 131.25749193 139.21166992 133.22363281 C139.21774261 134.1445874 139.22381531 135.06554199 139.23007202 136.0144043 C139.17708192 140.85811747 139.03776296 144.27465019 135.81323242 148.16113281 C132.01038242 150.69636615 128.98132015 150.42809069 124.578125 150.38818359 C123.31925728 150.38862167 123.31925728 150.38862167 122.03495789 150.3890686 C119.25912155 150.38767452 116.48355316 150.37210964 113.70776367 150.35644531 C111.78391161 150.35271546 109.86005764 150.34986836 107.936203 150.34786987 C102.87105063 150.34023123 97.80601284 150.32058072 92.74090576 150.29846191 C87.57297312 150.27800849 82.40502199 150.26886923 77.23706055 150.25878906 C67.09573415 150.23733508 56.95449281 150.20319631 46.81323242 150.16113281 C46.82433548 151.22744431 46.83543854 152.2937558 46.84687805 153.39237976 C46.94824091 163.44185427 47.02319154 173.49122505 47.07229328 183.54109478 C47.09838583 188.70787043 47.13377793 193.87423337 47.19042969 199.04077148 C47.24476123 204.02692024 47.27465553 209.01267208 47.28761864 213.99909401 C47.29685644 215.9013373 47.31489596 217.80355888 47.34188271 219.70563316 C47.37818868 222.37055758 47.3831772 225.03384262 47.38085938 227.69897461 C47.39883575 228.48516174 47.41681213 229.27134888 47.43533325 230.08135986 C47.39707956 234.14692881 47.00148689 235.92946278 44.40275574 239.1275177 C41.1581389 241.67559356 39.65165748 242.28620364 35.62646484 242.32226562 C34.76184128 242.33187317 33.89721771 242.34148071 33.00639343 242.35137939 C31.60173576 242.35775421 31.60173576 242.35775421 30.16870117 242.36425781 C29.20676346 242.36995789 28.24482574 242.37565796 27.2537384 242.38153076 C25.21523135 242.39098794 23.17670895 242.39751758 21.13818359 242.40136719 C18.02373438 242.41106122 14.90994821 242.44207319 11.7956543 242.47363281 C9.81584051 242.48016398 7.836022 242.485414 5.85620117 242.48925781 C4.92583542 242.50160461 3.99546967 242.51395142 3.03691101 242.52667236 C-1.83833668 242.50993351 -5.27933561 242.42234116 -9.18676758 239.16113281 C-11.72200091 235.35828281 -11.45372546 232.32922054 -11.41381836 227.92602539 C-11.41411041 227.08678024 -11.41440247 226.2475351 -11.41470337 225.38285828 C-11.41330929 222.60702194 -11.39774441 219.83145355 -11.38208008 217.05566406 C-11.37835023 215.131812 -11.37550312 213.20795804 -11.37350464 211.28410339 C-11.36586599 206.21895102 -11.34621549 201.15391323 -11.32409668 196.08880615 C-11.30364325 190.92087352 -11.294504 185.75292238 -11.28442383 180.58496094 C-11.26296984 170.44363454 -11.22883107 160.3023932 -11.18676758 150.16113281 C-12.78623482 150.1777874 -12.78623482 150.1777874 -14.41801453 150.19477844 C-24.46748903 150.29614131 -34.51685981 150.37109193 -44.56672955 150.42019367 C-49.73350519 150.44628622 -54.89986813 150.48167832 -60.06640625 150.53833008 C-65.05255501 150.59266162 -70.03830684 150.62255593 -75.02472878 150.63551903 C-76.92697206 150.64475683 -78.82919365 150.66279635 -80.73126793 150.6897831 C-83.39619235 150.72608907 -86.05947739 150.73107759 -88.72460938 150.72875977 C-89.90389008 150.75572433 -89.90389008 150.75572433 -91.10699463 150.78323364 C-95.17256357 150.74497995 -96.95509754 150.34938728 -100.15315247 147.75065613 C-102.70122832 144.50603929 -103.31183841 142.99955787 -103.34790039 138.97436523 C-103.36231171 137.67742989 -103.36231171 137.67742989 -103.37701416 136.35429382 C-103.38338898 134.94963615 -103.38338898 134.94963615 -103.38989258 133.51660156 C-103.39844269 132.07369499 -103.39844269 132.07369499 -103.40716553 130.60163879 C-103.41662271 128.56313174 -103.42315235 126.52460934 -103.42700195 124.48608398 C-103.43669598 121.37163477 -103.46770795 118.2578486 -103.49926758 115.14355469 C-103.50579874 113.1637409 -103.51104877 111.18392239 -103.51489258 109.20410156 C-103.52723938 108.27373581 -103.53958618 107.34337006 -103.55230713 106.3848114 C-103.53556827 101.50956371 -103.44797592 98.06856478 -100.18676758 94.16113281 C-96.38391757 91.62589948 -93.35485531 91.89417493 -88.95166016 91.93408203 C-87.69279243 91.93364395 -87.69279243 91.93364395 -86.40849304 91.93319702 C-83.63265671 91.9345911 -80.85708831 91.95015598 -78.08129883 91.96582031 C-76.15744676 91.96955016 -74.2335928 91.97239727 -72.30973816 91.97439575 C-67.24458579 91.9820344 -62.179548 92.0016849 -57.11444092 92.02380371 C-51.94650828 92.04425714 -46.77855714 92.05339639 -41.6105957 92.06347656 C-31.4692693 92.08493055 -21.32802797 92.11906932 -11.18676758 92.16113281 C-11.19787064 91.09482132 -11.20897369 90.02850983 -11.22041321 88.92988586 C-11.32177607 78.88041136 -11.3967267 68.83104058 -11.44582844 58.78117085 C-11.47192098 53.6143952 -11.50731309 48.44803226 -11.56396484 43.28149414 C-11.61829638 38.29534538 -11.64819069 33.30959355 -11.66115379 28.32317162 C-11.6703916 26.42092833 -11.68843111 24.51870674 -11.71541786 22.61663246 C-11.75172384 19.95170804 -11.75671236 17.288423 -11.75439453 14.62329102 C-11.77237091 13.83710388 -11.79034729 13.05091675 -11.80886841 12.24090576 C-11.77061471 8.17533682 -11.37502205 6.39280285 -8.77629089 3.19474792 C-5.53167405 0.64667207 -4.02519263 0.03606198 0 0 Z " fill="#FEFEFE" transform="translate(238.186767578125,134.8388671875)"/>
<path d="M0 0 C0.99831345 -0.01283524 1.99662689 -0.02567047 3.02519226 -0.03889465 C4.10847305 -0.04628159 5.19175385 -0.05366852 6.30786133 -0.0612793 C7.42042801 -0.06935104 8.53299469 -0.07742279 9.67927551 -0.08573914 C12.03893471 -0.09958977 14.39861402 -0.11030753 16.75830078 -0.11816406 C20.35789331 -0.13534531 23.95656007 -0.17922035 27.5559082 -0.22338867 C29.84821915 -0.23351821 32.14053792 -0.24203349 34.43286133 -0.2487793 C35.50602097 -0.26628738 36.5791806 -0.28379547 37.68486023 -0.30183411 C44.95683464 -0.28085472 49.37715577 0.75442165 54.90942383 5.7043457 C59.31540701 11.32469881 60.50268744 15.66544721 60.42944336 22.72119141 C60.42973541 23.4631929 60.43002747 24.2051944 60.43032837 24.96968079 C60.4289406 27.41000262 60.41340571 29.85001503 60.39770508 32.2902832 C60.39397298 33.98707411 60.39112693 35.68386718 60.38912964 37.38066101 C60.3815087 41.83751418 60.36187347 46.29423612 60.33972168 50.7510376 C60.31923005 55.30251287 60.31012083 59.85400943 60.30004883 64.40551758 C60.2786261 73.32940322 60.24450877 82.25319166 60.20239258 91.17700195 C61.60394592 91.16367828 61.60394592 91.16367828 63.03381348 91.15008545 C71.86093907 91.0688221 80.68798826 91.00895165 89.51540375 90.96975327 C94.05315299 90.94892306 98.59059904 90.92068949 103.12817383 90.87524414 C107.5113267 90.83162261 111.89418884 90.80783052 116.27754211 90.79749298 C117.94562859 90.79013076 119.61370006 90.77575414 121.28166199 90.75408173 C139.03872321 90.53263899 139.03872321 90.53263899 146.26098633 97.02856445 C146.71602539 97.61379883 147.17106445 98.1990332 147.63989258 98.80200195 C148.11297852 99.39239258 148.58606445 99.9827832 149.07348633 100.59106445 C151.13279549 103.48407317 151.33921066 105.35777101 151.37939453 108.86694336 C151.39222977 109.84200836 151.405065 110.81707336 151.41828918 111.82168579 C151.42936958 113.40909073 151.42936958 113.40909073 151.44067383 115.02856445 C151.44874557 116.11656342 151.45681732 117.20456238 151.46513367 118.32553101 C151.47898509 120.63391522 151.48970249 122.94232001 151.49755859 125.25073242 C151.51472135 128.76692119 151.55859328 132.28215764 151.6027832 135.7980957 C151.61291444 138.04157838 151.62142919 140.28506904 151.62817383 142.52856445 C151.64568192 143.57468903 151.66319 144.6208136 151.68122864 145.69863892 C151.66060537 152.70550993 150.69208638 158.41977514 145.79023743 163.69741821 C140.4403929 168.44835202 135.62171873 169.47633941 128.65820312 169.40405273 C127.91620163 169.40434479 127.17420013 169.40463684 126.40971375 169.40493774 C123.96939191 169.40354998 121.5293795 169.38801508 119.08911133 169.37231445 C117.39232042 169.36858235 115.69552736 169.36573631 113.99873352 169.36373901 C109.54188036 169.35611808 105.08515841 169.33648285 100.62835693 169.31433105 C96.07688166 169.29383942 91.5253851 169.28473021 86.97387695 169.2746582 C78.04999131 169.25323547 69.12620287 169.21911815 60.20239258 169.17700195 C60.21127502 170.11137085 60.22015747 171.04573975 60.22930908 172.00842285 C60.31057244 180.83554844 60.37044288 189.66259764 60.40964127 198.49001312 C60.43047147 203.02776237 60.45870504 207.56520842 60.50415039 212.1027832 C60.54777192 216.48593607 60.57156401 220.86879822 60.58190155 225.25215149 C60.58926377 226.92023797 60.60364039 228.58830943 60.62531281 230.25627136 C60.84968115 248.24793172 60.84968115 248.24793172 54.7901001 254.67492676 C50.37415228 258.66198565 46.05898058 260.40501995 40.171875 260.49926758 C39.19703659 260.51848267 38.22219818 260.53769775 37.21781921 260.55749512 C35.65364006 260.57024475 35.65364006 260.57024475 34.05786133 260.58325195 C32.97410721 260.5946521 31.89035309 260.60605225 30.77375793 260.61779785 C28.48332607 260.63666465 26.19284032 260.64975264 23.90234375 260.6574707 C20.4121965 260.67687793 16.92440891 260.73894441 13.43481445 260.80200195 C11.20501067 260.81506406 8.97519011 260.82556421 6.74536133 260.83325195 C5.70864792 260.85794556 4.67193451 260.88263916 3.60380554 260.90808105 C-2.64742301 260.86996127 -6.33043685 259.89485786 -11.16044617 255.85705566 C-16.58308404 250.29234855 -18.10453871 245.32785613 -18.0246582 237.6328125 C-18.02495026 236.890811 -18.02524231 236.14880951 -18.02554321 235.38432312 C-18.02415545 232.94400128 -18.00862055 230.50398888 -17.99291992 228.0637207 C-17.98918782 226.3669298 -17.98634178 224.67013673 -17.98434448 222.9733429 C-17.97672355 218.51648973 -17.95708832 214.05976778 -17.93493652 209.60296631 C-17.91444489 205.05149104 -17.90533568 200.49999448 -17.89526367 195.94848633 C-17.87384094 187.02460069 -17.83972362 178.10081225 -17.79760742 169.17700195 C-18.73197632 169.1858844 -19.66634521 169.19476685 -20.62902832 169.20391846 C-29.45615391 169.28518181 -38.28320311 169.34505226 -47.11061859 169.38425064 C-51.64836784 169.40508084 -56.18581389 169.43331442 -60.72338867 169.47875977 C-65.10654154 169.5223813 -69.48940369 169.54617338 -73.87275696 169.55651093 C-75.54084343 169.56387315 -77.2089149 169.57824976 -78.87687683 169.59992218 C-96.63393806 169.82136491 -96.63393806 169.82136491 -103.85620117 163.32543945 C-104.31124023 162.74020508 -104.7662793 162.1549707 -105.23510742 161.55200195 C-105.70819336 160.96161133 -106.1812793 160.3712207 -106.66870117 159.76293945 C-108.77559189 156.80308605 -108.93535468 154.86549121 -108.97460938 151.27172852 C-108.98744461 150.25016663 -109.00027985 149.22860474 -109.01350403 148.17608643 C-109.02089096 147.0677948 -109.02827789 145.95950317 -109.03588867 144.81762695 C-109.04396042 143.68049255 -109.05203217 142.54335815 -109.06034851 141.37176514 C-109.0741984 138.96083098 -109.08491649 136.54987715 -109.09277344 134.13891602 C-109.10997238 130.45591915 -109.15385033 126.77382293 -109.19799805 123.09106445 C-109.20812595 120.74992523 -109.21664175 118.40877836 -109.22338867 116.06762695 C-109.24089676 114.96743225 -109.25840485 113.86723755 -109.27644348 112.73370361 C-109.25571833 105.40748751 -108.33911175 101.90871495 -103.27026367 96.56762695 C-97.67740915 92.04376678 -93.35039724 90.87627904 -86.25341797 90.94995117 C-85.51141647 90.94965912 -84.76941498 90.94936707 -84.00492859 90.94906616 C-81.56460675 90.95045393 -79.12459435 90.96598883 -76.68432617 90.98168945 C-74.98753527 90.98542155 -73.2907422 90.9882676 -71.59394836 90.99026489 C-67.1370952 90.99788583 -62.68037325 91.01752106 -58.22357178 91.03967285 C-53.6720965 91.06016448 -49.12059994 91.0692737 -44.5690918 91.0793457 C-35.64520615 91.10076843 -26.72141772 91.13488576 -17.79760742 91.17700195 C-17.80648987 90.24263306 -17.81537231 89.30826416 -17.82452393 88.34558105 C-17.90578728 79.51845546 -17.96565773 70.69140627 -18.00485611 61.86399078 C-18.02568631 57.32624154 -18.05391989 52.78879549 -18.09936523 48.2512207 C-18.14298677 43.86806784 -18.16677885 39.48520569 -18.17711639 35.10185242 C-18.18447862 33.43376594 -18.19885523 31.76569447 -18.22052765 30.09773254 C-18.44197038 12.34067132 -18.44197038 12.34067132 -11.94604492 5.1184082 C-11.36081055 4.66336914 -10.77557617 4.20833008 -10.17260742 3.73950195 C-9.5822168 3.26641602 -8.99182617 2.79333008 -8.38354492 2.3059082 C-5.45687545 0.22263856 -3.55175652 0.03971155 0 0 Z M-5.79760742 12.17700195 C-8.33284076 15.97985196 -8.0645653 19.00891422 -8.0246582 23.41210938 C-8.02495026 24.25135452 -8.02524231 25.09059967 -8.02554321 25.95527649 C-8.02414913 28.73111282 -8.00858425 31.50668122 -7.99291992 34.2824707 C-7.98919007 36.20632277 -7.98634297 38.13017673 -7.98434448 40.05403137 C-7.97670584 45.11918374 -7.95705533 50.18422153 -7.93493652 55.24932861 C-7.9144831 60.41726125 -7.90534384 65.58521239 -7.89526367 70.75317383 C-7.87380969 80.89450023 -7.83967092 91.03574157 -7.79760742 101.17700195 C-9.39707466 101.16034737 -9.39707466 101.16034737 -11.02885437 101.14335632 C-21.07832887 101.04199346 -31.12769965 100.96704284 -41.17756939 100.91794109 C-46.34434504 100.89184855 -51.51070798 100.85645644 -56.67724609 100.79980469 C-61.66339485 100.74547315 -66.64914669 100.71557884 -71.63556862 100.70261574 C-73.5378119 100.69337793 -75.44003349 100.67533842 -77.34210777 100.64835167 C-80.00703219 100.61204569 -82.67031723 100.60705717 -85.33544922 100.609375 C-86.12163635 100.59139862 -86.90782349 100.57342224 -87.71783447 100.55490112 C-91.78340342 100.59315482 -93.56593739 100.98874748 -96.76399231 103.58747864 C-99.31206817 106.83209548 -99.92267825 108.3385769 -99.95874023 112.36376953 C-99.96834778 113.2283931 -99.97795532 114.09301666 -99.987854 114.98384094 C-99.99210388 115.92027939 -99.99635376 116.85671783 -100.00073242 117.8215332 C-100.0064325 118.78347092 -100.01213257 119.74540863 -100.01800537 120.73649597 C-100.02746255 122.77500303 -100.03399219 124.81352542 -100.0378418 126.85205078 C-100.04753583 129.9665 -100.0785478 133.08028616 -100.11010742 136.19458008 C-100.11663858 138.17439386 -100.12188861 140.15421238 -100.12573242 142.1340332 C-100.13807922 143.06439896 -100.15042603 143.99476471 -100.16314697 144.95332336 C-100.14640812 149.82857105 -100.05881577 153.26956999 -96.79760742 157.17700195 C-92.99475742 159.71223529 -89.96569515 159.44395983 -85.5625 159.40405273 C-84.72325485 159.40434479 -83.8840097 159.40463684 -83.01933289 159.40493774 C-80.24349655 159.40354366 -77.46792816 159.38797878 -74.69213867 159.37231445 C-72.76828661 159.3685846 -70.84443264 159.3657375 -68.920578 159.36373901 C-63.85542563 159.35610037 -58.79038784 159.33644986 -53.72528076 159.31433105 C-48.55734812 159.29387763 -43.38939699 159.28473837 -38.22143555 159.2746582 C-28.08010915 159.25320422 -17.93886781 159.21906545 -7.79760742 159.17700195 C-7.80871048 160.24331345 -7.81981354 161.30962494 -7.83125305 162.4082489 C-7.93261591 172.45772341 -8.00756654 182.50709419 -8.05666828 192.55696392 C-8.08276083 197.72373957 -8.11815293 202.89010251 -8.17480469 208.05664062 C-8.22913623 213.04278938 -8.25903053 218.02854122 -8.27199364 223.01496315 C-8.28123144 224.91720644 -8.29927096 226.81942802 -8.32625771 228.7215023 C-8.36256368 231.38642672 -8.3675522 234.04971176 -8.36523438 236.71484375 C-8.38321075 237.50103088 -8.40118713 238.28721802 -8.41970825 239.097229 C-8.38145456 243.16279795 -7.98586189 244.94533192 -5.38713074 248.14338684 C-2.1425139 250.6914627 -0.63603248 251.30207278 3.38916016 251.33813477 C4.25378372 251.34774231 5.11840729 251.35734985 6.00923157 251.36724854 C6.94567001 251.37149841 7.88210846 251.37574829 8.84692383 251.38012695 C9.80886154 251.38582703 10.77079926 251.3915271 11.7618866 251.3973999 C13.80039365 251.40685708 15.83891605 251.41338672 17.87744141 251.41723633 C20.99189062 251.42693036 24.10567679 251.45794233 27.2199707 251.48950195 C29.19978449 251.49603312 31.179603 251.50128314 33.15942383 251.50512695 C34.08978958 251.51747375 35.02015533 251.52982056 35.97871399 251.5425415 C40.85396168 251.52580265 44.29496061 251.4382103 48.20239258 248.17700195 C50.73762591 244.37415195 50.46935046 241.34508969 50.42944336 236.94189453 C50.42973541 236.10264938 50.43002747 235.26340424 50.43032837 234.39872742 C50.42893429 231.62289108 50.41336941 228.84732269 50.39770508 226.0715332 C50.39397523 224.14768114 50.39112812 222.22382718 50.38912964 220.29997253 C50.38149099 215.23482016 50.36184049 210.16978237 50.33972168 205.10467529 C50.31926825 199.93674266 50.310129 194.76879152 50.30004883 189.60083008 C50.27859484 179.45950368 50.24445607 169.31826234 50.20239258 159.17700195 C51.80185982 159.19365654 51.80185982 159.19365654 53.43363953 159.21064758 C63.48311403 159.31201045 73.53248481 159.38696107 83.58235455 159.43606281 C88.74913019 159.46215536 93.91549313 159.49754746 99.08203125 159.55419922 C104.06818001 159.60853076 109.05393184 159.63842507 114.04035378 159.65138817 C115.94259706 159.66062597 117.84481865 159.67866549 119.74689293 159.70565224 C122.41181735 159.74195821 125.07510239 159.74694673 127.74023438 159.74462891 C128.52642151 159.76260529 129.31260864 159.78058167 130.12261963 159.79910278 C134.18818857 159.76084909 135.97072254 159.36525642 139.16877747 156.76652527 C141.71685332 153.52190843 142.32746341 152.01542701 142.36352539 147.99023438 C142.37313293 147.12561081 142.38274048 146.26098724 142.39263916 145.37016296 C142.39688904 144.43372452 142.40113892 143.49728607 142.40551758 142.5324707 C142.41121765 141.57053299 142.41691772 140.60859528 142.42279053 139.61750793 C142.43224771 137.57900088 142.43877735 135.54047848 142.44262695 133.50195312 C142.45232098 130.38750391 142.48333295 127.27371775 142.51489258 124.15942383 C142.52142374 122.17961004 142.52667377 120.19979153 142.53051758 118.2199707 C142.54903778 116.82442207 142.54903778 116.82442207 142.56793213 115.40068054 C142.56272097 108.7612273 142.56272097 108.7612273 139.20239258 103.17700195 C134.87727459 100.883638 130.70317468 100.90517361 125.92382812 100.94995117 C124.69378304 100.94951309 124.69378304 100.94951309 123.43888855 100.94906616 C120.73885373 100.9504552 118.03909772 100.96599629 115.33911133 100.98168945 C113.46295828 100.9854211 111.58680328 100.98826736 109.71064758 100.99026489 C104.7803303 100.99788941 99.85013144 101.01752778 94.91986084 101.03967285 C89.88579917 101.06015672 84.85171831 101.06927204 79.81762695 101.0793457 C69.94583022 101.10077476 60.07412126 101.13489648 50.20239258 101.17700195 C50.21904716 99.57753471 50.21904716 99.57753471 50.23603821 97.945755 C50.33740107 87.8962805 50.4123517 77.84690972 50.46145344 67.79703999 C50.48754598 62.63026434 50.52293809 57.4639014 50.57958984 52.29736328 C50.63392138 47.31121452 50.66381569 42.32546269 50.67677879 37.33904076 C50.6860166 35.43679747 50.70405611 33.53457588 50.73104286 31.6325016 C50.76734884 28.96757718 50.77233736 26.30429214 50.77001953 23.63916016 C50.78799591 22.85297302 50.80597229 22.06678589 50.82449341 21.2567749 C50.78623971 17.19120596 50.39064705 15.40867199 47.79191589 12.21061707 C44.54729905 9.66254121 43.04081763 9.05193112 39.015625 9.01586914 C38.15100143 9.0062616 37.28637787 8.99665405 36.39555359 8.98675537 C35.45911514 8.98250549 34.5226767 8.97825562 33.55786133 8.97387695 C32.59592361 8.96817688 31.6339859 8.96247681 30.64289856 8.956604 C28.6043915 8.94714683 26.56586911 8.94061718 24.52734375 8.93676758 C21.41289453 8.92707355 18.29910837 8.89606158 15.18481445 8.86450195 C13.20500067 8.85797079 11.22518216 8.85272076 9.24536133 8.84887695 C7.8498127 8.83035675 7.8498127 8.83035675 6.42607117 8.8114624 C1.55082348 8.82820126 -1.89017545 8.91579361 -5.79760742 12.17700195 Z " fill="#182022" transform="translate(234.797607421875,125.822998046875)"/>
<path d="M0 0 C2.47306953 2.19431064 3.56443681 3.97151781 4.578125 7.10546875 C4.98285034 8.32097412 4.98285034 8.32097412 5.39575195 9.56103516 C5.81860474 10.86113525 5.81860474 10.86113525 6.25 12.1875 C15.79504395 40.33009849 30.54490976 65.12010729 49.6875 87.875 C50.12682861 88.39827881 50.56615723 88.92155762 51.01879883 89.46069336 C53.34778802 92.19301975 55.75167993 94.75991744 58.33203125 97.2578125 C61 100 61 100 61 102 C61.59039062 102.25910156 62.18078125 102.51820313 62.7890625 102.78515625 C65.16697393 104.09174716 66.54447428 105.44545731 68.375 107.4375 C74.07126412 113.27089641 80.50819784 118.09667323 87 123 C87.82346924 123.63059326 87.82346924 123.63059326 88.66357422 124.27392578 C119.35566585 147.66677868 156.09101411 161.86546371 194 168 C194.7537793 168.12987305 195.50755859 168.25974609 196.28417969 168.39355469 C253.8347616 178.02578992 317.29539254 161.38488215 364.4375 127.875 C374.53565295 120.53320179 383.95830887 112.6032733 393 104 C393.56799316 103.46068848 394.13598633 102.92137695 394.72119141 102.36572266 C403.30694419 94.1548107 411.01079569 85.60855876 418 76 C418.69005127 75.05253906 418.69005127 75.05253906 419.39404297 74.0859375 C434.89350253 52.59963111 446.36751434 29.0113409 455 4 C456.38574306 8.15722917 454.93792292 11.0819186 453.5625 15.0625 C453.15306152 16.26144897 453.15306152 16.26144897 452.73535156 17.48461914 C445.18144046 39.06994126 434.62061421 59.63135478 421 78 C420.55011719 78.60682617 420.10023438 79.21365234 419.63671875 79.83886719 C412.96840819 88.74115787 405.69796549 96.98035082 398 105 C397.51418457 105.51304687 397.02836914 106.02609375 396.52783203 106.5546875 C388.94523258 114.54010463 380.81172213 121.40952255 372 128 C371.05125 128.72058594 370.1025 129.44117188 369.125 130.18359375 C349.3957796 144.89448048 327.22714323 156.01897292 304 164 C303.29327148 164.24830566 302.58654297 164.49661133 301.85839844 164.75244141 C253.9047547 181.45864805 198.62746991 180.1125545 151 163 C150.26845703 162.73912598 149.53691406 162.47825195 148.78320312 162.20947266 C127.87522313 154.61652854 107.77539142 144.41474336 90 131 C89.401875 130.55446777 88.80375 130.10893555 88.1875 129.64990234 C79.2747822 122.97736927 71.0276099 115.70560689 63 108 C62.48695312 107.51418457 61.97390625 107.02836914 61.4453125 106.52783203 C53.45992632 98.94526197 46.56806384 90.82971995 40 82 C39.57477051 81.43555176 39.14954102 80.87110352 38.71142578 80.28955078 C23.43197594 59.93457435 0 26.01181727 0 0 Z " fill="#3AB97E" transform="translate(27,317)"/>
<path d="M0 0 C0.33 0 0.66 0 1 0 C1.08774066 3.20815845 1.14063706 6.41600462 1.1875 9.625 C1.21263672 10.52863281 1.23777344 11.43226563 1.26367188 12.36328125 C1.3321515 18.61775332 0.6772226 22.96624655 -3.61328125 27.828125 C-4.17402344 28.29734375 -4.73476563 28.7665625 -5.3125 29.25 C-5.86550781 29.72953125 -6.41851562 30.2090625 -6.98828125 30.703125 C-11.93446957 33.89173572 -16.79723354 34.24647396 -22.56591797 34.22705078 C-23.29831192 34.22734283 -24.03070587 34.22763489 -24.78529358 34.22793579 C-27.18771529 34.22655094 -29.58982048 34.21102997 -31.9921875 34.1953125 C-33.66512889 34.19157936 -35.33807248 34.18873381 -37.01101685 34.18673706 C-41.40045272 34.1791243 -45.7897549 34.15949619 -50.17913818 34.1373291 C-54.66367789 34.11681976 -59.14823934 34.10772448 -63.6328125 34.09765625 C-72.421943 34.07624794 -81.21093943 34.04108514 -90 34 C-90 27.73 -90 21.46 -90 15 C-86.60944336 14.98598145 -86.60944336 14.98598145 -83.15039062 14.97167969 C-75.66242581 14.93783571 -68.17473443 14.88224568 -60.68698883 14.81609726 C-56.1493846 14.77667333 -51.61197294 14.74446003 -47.07421875 14.72900391 C-42.69084064 14.71380366 -38.30799216 14.67929888 -33.92485046 14.63169098 C-32.25685747 14.61691178 -30.58878884 14.60896098 -28.92073059 14.60811615 C-16.85074606 14.76692659 -16.85074606 14.76692659 -6 10 C-3.013496 6.93490378 -1.3834408 4.03503567 0 0 Z " fill="#3BBE81" transform="translate(385,280)"/>
<path d="M0 0 C0.89912109 1.15435547 0.89912109 1.15435547 1.81640625 2.33203125 C5.51406023 6.84991617 9.40192746 10.2372848 15 12 C17.55002682 12.20367359 19.99461545 12.31089657 22.54418945 12.31884766 C23.6571917 12.33391609 23.6571917 12.33391609 24.79267883 12.34928894 C27.23287213 12.3800547 29.67295603 12.39713747 32.11328125 12.4140625 C33.81008338 12.43277948 35.50687626 12.4523533 37.20365906 12.4727478 C41.66039568 12.52401902 46.11716247 12.56367151 50.57403564 12.60089111 C55.12560456 12.64096221 59.67704855 12.69204038 64.22851562 12.7421875 C73.15226461 12.83888753 82.07606539 12.92229344 91 13 C91 19.27 91 25.54 91 32 C81.35938854 32.06791616 71.71893732 32.12289689 62.07814026 32.15543652 C57.60099359 32.17105796 53.12401983 32.19223151 48.64697266 32.22631836 C44.32218742 32.25903794 39.99756797 32.27687948 35.67266846 32.28463173 C34.02693067 32.2901527 32.38120142 32.30093367 30.73553467 32.31719017 C28.42115029 32.33913256 26.10744127 32.34196002 23.79296875 32.34057617 C21.82106567 32.35056892 21.82106567 32.35056892 19.80932617 32.36076355 C14.51574129 31.85943277 9.85380242 30.57716295 5.72265625 27.0625 C5.17480469 26.381875 4.62695312 25.70125 4.0625 25 C3.49660156 24.319375 2.93070313 23.63875 2.34765625 22.9375 C0.23281765 19.89703639 -0.1231796 17.3683243 -0.09765625 13.76953125 C-0.09282227 12.56586914 -0.09282227 12.56586914 -0.08789062 11.33789062 C-0.07951172 10.50451172 -0.07113281 9.67113281 -0.0625 8.8125 C-0.05798828 7.96751953 -0.05347656 7.12253906 -0.04882812 6.25195312 C-0.03705403 4.16793845 -0.0191189 2.08396023 0 0 Z " fill="#3CBE81" transform="translate(126,282)"/>
<path d="M0 0 C2 2 2 2 3.125 4.75 C5.64810233 9.12337737 8.52651445 11.65356213 13 14 C16.8308241 14.81392392 20.53247548 14.79657946 24.4375 14.7265625 C25.51700928 14.72755951 26.59651855 14.72855652 27.70874023 14.72958374 C29.98135781 14.72492202 32.25398761 14.70558143 34.52636719 14.67236328 C37.98987907 14.625138 41.45030979 14.63125828 44.9140625 14.64453125 C47.13022655 14.63337673 49.34637772 14.61915635 51.5625 14.6015625 C52.58980225 14.60338531 53.61710449 14.60520813 54.67553711 14.60708618 C62.24508969 14.45902093 67.98536475 13.09396776 73.375 7.5625 C74.94083732 5.093295 76.0532005 2.76149854 77 0 C77.33 0 77.66 0 78 0 C78.83966197 21.62129577 78.83966197 21.62129577 72.38671875 28.79296875 C65.9579457 34.79410723 59.31521411 35.3156445 50.8515625 35.3359375 C49.39452408 35.3459227 49.39452408 35.3459227 47.90805054 35.35610962 C45.85896693 35.36620667 43.80985064 35.37092755 41.76074219 35.37060547 C38.6420217 35.37497615 35.52472025 35.41132067 32.40625 35.44921875 C30.40885897 35.45508819 28.41146127 35.45905673 26.4140625 35.4609375 C25.48985504 35.47530853 24.56564758 35.48967957 23.61343384 35.50448608 C16.62067519 35.45564381 11.36169945 33.84251807 5.9765625 29.2890625 C5.53054687 28.73992187 5.08453125 28.19078125 4.625 27.625 C3.93277344 26.80902344 3.93277344 26.80902344 3.2265625 25.9765625 C-0.24598019 20.38068161 -0.25688296 14.98581665 -0.125 8.625 C-0.11597656 7.79355469 -0.10695312 6.96210938 -0.09765625 6.10546875 C-0.0742622 4.07018663 -0.03839725 2.03505436 0 0 Z " fill="#3BBD80" transform="translate(217,371)"/>
<path d="M0 0 C0.33 0 0.66 0 1 0 C1.07423798 6.17469663 1.12864413 12.34913261 1.16479492 18.52416992 C1.17986772 20.62415086 1.20032941 22.7241004 1.22631836 24.82397461 C1.26276754 27.84496824 1.27974159 30.86554511 1.29296875 33.88671875 C1.30845261 34.82335861 1.32393646 35.75999847 1.33988953 36.72502136 C1.341149 41.61930841 1.28320864 45.0800304 -2 49 C-5.80285 51.53523334 -8.83191227 51.26695788 -13.23510742 51.22705078 C-14.49397514 51.22748886 -14.49397514 51.22748886 -15.77827454 51.22793579 C-18.55411087 51.22654171 -21.32967927 51.21097683 -24.10546875 51.1953125 C-26.02932081 51.19158265 -27.95317478 51.18873555 -29.87702942 51.18673706 C-34.94218179 51.17909842 -40.00721958 51.15944791 -45.07232666 51.1373291 C-50.2402593 51.11687568 -55.40821044 51.10773642 -60.57617188 51.09765625 C-70.71749828 51.07620226 -80.85873961 51.04206349 -91 51 C-91 47.7 -91 44.4 -91 41 C-89.39720184 40.99453156 -89.39720184 40.99453156 -87.76202393 40.98895264 C-77.69724453 40.95202816 -67.63277181 40.89428349 -57.56822586 40.81609726 C-52.3937782 40.77657037 -47.21950204 40.74440748 -42.04492188 40.72900391 C-37.05210813 40.71387164 -32.05976574 40.67948725 -27.06716156 40.63169098 C-25.16140589 40.61684173 -23.25558293 40.60895696 -21.34976959 40.60811615 C-18.68221144 40.60575537 -16.01596535 40.57874846 -13.34863281 40.54589844 C-12.5588504 40.5509288 -11.76906799 40.55595917 -10.95535278 40.56114197 C-7.45800436 40.49440642 -5.3817947 40.27613092 -2.5123291 38.20080566 C-0.2439448 34.8997563 -0.3968247 31.60370187 -0.390625 27.734375 C-0.37408875 26.94097717 -0.35755249 26.14757935 -0.34051514 25.33013916 C-0.29204384 22.80334731 -0.27066713 20.27715719 -0.25 17.75 C-0.22183943 16.03382391 -0.19191188 14.31767584 -0.16015625 12.6015625 C-0.08628564 8.40109122 -0.03670613 4.2009538 0 0 Z " fill="#E4E4E4" transform="translate(376,234)"/>
<path d="M0 0 C0.33 0 0.66 0 1 0 C1.01401855 1.60439941 1.01401855 1.60439941 1.02832031 3.24121094 C1.06823512 7.2149397 1.13399721 11.18789544 1.20751953 15.16113281 C1.23572067 16.87978169 1.25693954 18.59856005 1.27099609 20.31738281 C1.29243833 22.79038747 1.33909156 25.26183675 1.390625 27.734375 C1.39185364 28.50118591 1.39308228 29.26799683 1.39434814 30.05804443 C1.48238116 33.27444188 1.66765202 35.51635307 3.5123291 38.20080566 C6.99976223 40.72307255 10.20248654 40.57230651 14.34863281 40.54589844 C15.60771957 40.56140495 15.60771957 40.56140495 16.89224243 40.57722473 C19.66273161 40.6066886 22.43249136 40.60815265 25.203125 40.609375 C27.12556352 40.62435424 29.04798916 40.64108085 30.97039795 40.65948486 C36.02726833 40.70319935 41.08396511 40.72316657 46.14099121 40.73822021 C51.30243208 40.7577765 56.46368505 40.79974818 61.625 40.83984375 C71.7499421 40.91519027 81.87484224 40.96545487 92 41 C92 44.3 92 47.6 92 51 C80.87345829 51.11585605 69.7470601 51.20469636 58.62003803 51.25906086 C53.45326239 51.28515341 48.28689944 51.32054551 43.12036133 51.37719727 C38.13421257 51.43152881 33.14846073 51.46142311 28.1620388 51.47438622 C26.25979552 51.48362402 24.35757393 51.50166353 22.45549965 51.52865028 C19.79057523 51.56495626 17.12729019 51.56994478 14.4621582 51.56762695 C13.67597107 51.58560333 12.88978394 51.60357971 12.07977295 51.62210083 C8.014204 51.58384714 6.23167004 51.18825447 3.03361511 48.58952332 C0.45105597 45.30099686 -0.12518614 43.81514795 -0.11352539 39.73388672 C-0.11344986 38.85312469 -0.11337433 37.97236267 -0.11329651 37.06491089 C-0.10813522 36.11278717 -0.10297394 35.16066345 -0.09765625 34.1796875 C-0.0962413 33.20589142 -0.09482635 32.23209534 -0.09336853 31.22879028 C-0.08775973 28.11082927 -0.07520573 24.9929394 -0.0625 21.875 C-0.05748613 19.76432395 -0.05292303 17.65364678 -0.04882812 15.54296875 C-0.03778745 10.36195479 -0.02104073 5.18098248 0 0 Z " fill="#E4E4E4" transform="translate(135,234)"/>
<path d="M0 0 C0.61875 0.804375 1.2375 1.60875 1.875 2.4375 C3.74164041 5.03874519 3.74164041 5.03874519 6 6 C7.45932129 6.10456996 8.92322061 6.14865661 10.38623047 6.16113281 C11.29412323 6.17074036 12.20201599 6.1803479 13.13742065 6.19024658 C14.12074371 6.19449646 15.10406677 6.19874634 16.1171875 6.203125 C17.12588898 6.20882507 18.13459045 6.21452515 19.17385864 6.22039795 C21.31071928 6.229855 23.44759456 6.23638472 25.58447266 6.24023438 C28.85475084 6.2499399 32.12440067 6.28095692 35.39453125 6.3125 C37.46874626 6.31902993 39.54296577 6.32428044 41.6171875 6.328125 C42.5964621 6.3404718 43.57573669 6.3528186 44.58468628 6.36553955 C45.9559819 6.3610379 45.9559819 6.3610379 47.35498047 6.35644531 C48.55838577 6.36191376 48.55838577 6.36191376 49.78610229 6.36749268 C52.58517811 5.90286422 53.91303723 4.89419668 56 3 C56.66 2.01 57.32 1.02 58 0 C58.78545181 9.96651077 58.78545181 9.96651077 55.625 14.125 C52.3424219 16.46969864 50.76639185 17.12571618 46.81323242 17.16113281 C45.94860886 17.17074036 45.08398529 17.1803479 44.19316101 17.19024658 C42.78850334 17.1966214 42.78850334 17.1966214 41.35546875 17.203125 C40.39353104 17.20882507 39.43159332 17.21452515 38.44050598 17.22039795 C36.40199893 17.22985513 34.36347653 17.23638477 32.32495117 17.24023438 C29.21050195 17.2499284 26.09671579 17.28094038 22.98242188 17.3125 C21.00260809 17.31903116 19.02278958 17.32428119 17.04296875 17.328125 C16.112603 17.3404718 15.18223724 17.3528186 14.22367859 17.36553955 C9.3484309 17.3488007 5.90743197 17.26120835 2 14 C-0.28062828 10.57905758 -0.21925007 9.31812778 -0.125 5.3125 C-0.10695312 4.31863281 -0.08890625 3.32476562 -0.0703125 2.30078125 C-0.04710937 1.54152344 -0.02390625 0.78226562 0 0 Z " fill="#E0E0E0" transform="translate(227,360)"/>
</svg>
